<svg width="213" height="35" viewBox="0 0 213 35" fill="none" xmlns="http://www.w3.org/2000/svg">
<path d="M5.976 1.44H10.296L14.832 17.064L26.028 1.44H30.312L24.876 27H20.808L24.732 8.604L14.796 22.536H12.564L8.532 8.604L4.608 27H0.54L5.976 1.44ZM37.087 27.36C35.695 27.36 34.495 27.012 33.487 26.316C32.479 25.62 31.711 24.684 31.183 23.508C30.655 22.332 30.391 21.024 30.391 19.584C30.391 18.048 30.667 16.584 31.219 15.192C31.771 13.776 32.527 12.528 33.487 11.448C34.471 10.344 35.587 9.468 36.835 8.82C38.083 8.172 39.391 7.848 40.759 7.848C42.127 7.848 43.279 8.22 44.215 8.964C45.151 9.708 45.799 10.632 46.159 11.736L46.915 8.208H50.911L47.887 22.32C47.863 22.44 47.839 22.548 47.815 22.644C47.815 22.716 47.815 22.788 47.815 22.86C47.815 23.34 48.091 23.592 48.643 23.616L47.923 27C47.587 27.048 47.287 27.084 47.023 27.108C46.759 27.156 46.519 27.18 46.303 27.18C45.559 27.18 44.983 27.024 44.575 26.712C44.167 26.376 43.963 25.908 43.963 25.308C43.963 25.188 43.963 25.044 43.963 24.876C43.987 24.708 44.011 24.516 44.035 24.3C44.083 24.084 44.143 23.844 44.215 23.58C43.279 24.78 42.163 25.716 40.867 26.388C39.595 27.036 38.335 27.36 37.087 27.36ZM38.815 23.976C39.295 23.976 39.799 23.88 40.327 23.688C40.879 23.496 41.407 23.232 41.911 22.896C42.439 22.56 42.919 22.164 43.351 21.708C43.783 21.252 44.131 20.76 44.395 20.232L45.403 15.3C45.307 14.532 45.055 13.848 44.647 13.248C44.239 12.624 43.735 12.132 43.135 11.772C42.559 11.412 41.935 11.232 41.263 11.232C40.351 11.232 39.487 11.46 38.671 11.916C37.879 12.348 37.171 12.936 36.547 13.68C35.947 14.424 35.467 15.252 35.107 16.164C34.747 17.076 34.567 18 34.567 18.936C34.567 19.896 34.735 20.748 35.071 21.492C35.431 22.236 35.923 22.836 36.547 23.292C37.195 23.748 37.951 23.976 38.815 23.976ZM55.8875 8.172H59.5595L58.6235 12.384C59.5355 11.088 60.5675 10.044 61.7195 9.252C62.8715 8.46 64.0115 8.064 65.1395 8.064C65.3795 8.064 65.5715 8.076 65.7155 8.1C65.8595 8.1 65.9795 8.112 66.0755 8.136L65.3195 11.592C63.9035 11.616 62.5595 11.964 61.2875 12.636C60.0155 13.308 59.0075 14.256 58.2635 15.48L55.8155 27H51.8555L55.8875 8.172ZM72.9658 27.36C71.3338 27.36 69.9538 27 68.8258 26.28C67.7218 25.56 66.8818 24.6 66.3058 23.4C65.7298 22.2 65.4418 20.868 65.4418 19.404C65.4418 17.892 65.7298 16.452 66.3058 15.084C66.8818 13.692 67.6858 12.456 68.7178 11.376C69.7498 10.296 70.9618 9.444 72.3538 8.82C73.7698 8.172 75.3058 7.848 76.9618 7.848C78.9058 7.848 80.4538 8.28 81.6058 9.144C82.7578 9.984 83.5138 11.112 83.8738 12.528L79.7698 13.752C79.5058 12.936 79.0738 12.312 78.4738 11.88C77.8978 11.448 77.1658 11.232 76.2778 11.232C75.4138 11.232 74.5738 11.436 73.7578 11.844C72.9658 12.228 72.2458 12.78 71.5978 13.5C70.9738 14.196 70.4698 15.012 70.0858 15.948C69.7258 16.86 69.5458 17.856 69.5458 18.936C69.5458 19.92 69.7138 20.784 70.0498 21.528C70.3858 22.272 70.8538 22.872 71.4538 23.328C72.0778 23.76 72.7858 23.976 73.5778 23.976C74.1778 23.976 74.7778 23.868 75.3778 23.652C76.0018 23.412 76.5658 23.1 77.0698 22.716C77.5738 22.308 77.9578 21.864 78.2218 21.384L81.8578 22.536C81.2818 23.472 80.5258 24.3 79.5898 25.02C78.6778 25.74 77.6578 26.316 76.5298 26.748C75.4018 27.156 74.2138 27.36 72.9658 27.36ZM92.3746 27.36C90.6466 27.36 89.2066 27 88.0546 26.28C86.9266 25.56 86.0866 24.6 85.5346 23.4C85.0066 22.176 84.7426 20.844 84.7426 19.404C84.7426 17.844 85.0186 16.368 85.5706 14.976C86.1466 13.584 86.9506 12.348 87.9826 11.268C89.0146 10.188 90.2146 9.348 91.5826 8.748C92.9506 8.148 94.4266 7.848 96.0106 7.848C97.7626 7.848 99.2026 8.208 100.331 8.928C101.483 9.648 102.335 10.608 102.887 11.808C103.439 13.008 103.715 14.34 103.715 15.804C103.715 17.364 103.427 18.84 102.851 20.232C102.299 21.624 101.507 22.86 100.475 23.94C99.4426 24.996 98.2306 25.836 96.8386 26.46C95.4706 27.06 93.9826 27.36 92.3746 27.36ZM93.0226 23.976C93.8626 23.976 94.6786 23.796 95.4706 23.436C96.2626 23.052 96.9586 22.512 97.5586 21.816C98.1826 21.12 98.6746 20.316 99.0346 19.404C99.3946 18.468 99.5746 17.448 99.5746 16.344C99.5746 15.336 99.4186 14.46 99.1066 13.716C98.7946 12.948 98.3266 12.348 97.7026 11.916C97.0786 11.46 96.3106 11.232 95.3986 11.232C94.5586 11.232 93.7426 11.424 92.9506 11.808C92.1826 12.192 91.4866 12.732 90.8626 13.428C90.2386 14.124 89.7466 14.94 89.3866 15.876C89.0266 16.812 88.8466 17.82 88.8466 18.9C88.8466 19.884 89.0026 20.76 89.3146 21.528C89.6266 22.296 90.0946 22.896 90.7186 23.328C91.3666 23.76 92.1346 23.976 93.0226 23.976ZM124.422 27.18C122.934 27.18 121.614 26.892 120.462 26.316C119.31 25.74 118.338 24.96 117.546 23.976C116.778 22.992 116.19 21.864 115.782 20.592C115.398 19.296 115.206 17.964 115.206 16.596C115.206 15.036 115.47 13.512 115.998 12.024C116.526 10.536 117.258 9.144 118.194 7.848C119.13 6.552 120.222 5.412 121.47 4.428C122.718 3.444 124.062 2.676 125.502 2.124C126.966 1.548 128.466 1.26 130.002 1.26C131.466 1.26 132.762 1.56 133.89 2.16C135.042 2.736 136.014 3.528 136.806 4.536C137.598 5.544 138.186 6.684 138.57 7.956C138.954 9.228 139.146 10.548 139.146 11.916C139.146 13.452 138.882 14.964 138.354 16.452C137.85 17.94 137.13 19.332 136.194 20.628C135.258 21.9 134.166 23.028 132.918 24.012C131.67 24.996 130.326 25.776 128.886 26.352C127.446 26.904 125.958 27.18 124.422 27.18ZM125.214 23.544C126.63 23.544 127.926 23.208 129.102 22.536C130.302 21.864 131.346 20.976 132.234 19.872C133.122 18.744 133.806 17.52 134.286 16.2C134.766 14.856 135.006 13.524 135.006 12.204C135.006 10.908 134.778 9.708 134.322 8.604C133.89 7.5 133.242 6.612 132.378 5.94C131.514 5.268 130.446 4.932 129.174 4.932C127.782 4.932 126.474 5.268 125.25 5.94C124.05 6.588 123.006 7.476 122.118 8.604C121.254 9.708 120.57 10.932 120.066 12.276C119.586 13.596 119.346 14.928 119.346 16.272C119.346 17.568 119.562 18.768 119.994 19.872C120.45 20.976 121.11 21.864 121.974 22.536C122.862 23.208 123.942 23.544 125.214 23.544ZM143.812 8.172H147.304L146.584 11.556C147.52 10.428 148.6 9.528 149.824 8.856C151.072 8.184 152.368 7.848 153.712 7.848C155.08 7.848 156.256 8.208 157.24 8.928C158.224 9.624 158.98 10.56 159.508 11.736C160.036 12.912 160.3 14.22 160.3 15.66C160.3 17.172 160.024 18.636 159.472 20.052C158.92 21.444 158.164 22.692 157.204 23.796C156.268 24.9 155.176 25.776 153.928 26.424C152.704 27.048 151.408 27.36 150.04 27.36C148.624 27.36 147.448 27 146.512 26.28C145.576 25.56 144.916 24.624 144.532 23.472L142.156 34.668H138.196L143.812 8.172ZM149.464 23.976C150.376 23.976 151.228 23.76 152.02 23.328C152.836 22.872 153.544 22.284 154.144 21.564C154.768 20.82 155.26 19.992 155.62 19.08C155.98 18.144 156.16 17.208 156.16 16.272C156.16 15.336 155.98 14.496 155.62 13.752C155.284 12.984 154.792 12.372 154.144 11.916C153.52 11.46 152.776 11.232 151.912 11.232C151.432 11.232 150.916 11.328 150.364 11.52C149.836 11.712 149.308 11.976 148.78 12.312C148.252 12.648 147.772 13.044 147.34 13.5C146.932 13.956 146.608 14.436 146.368 14.94L145.288 19.872C145.456 20.64 145.72 21.336 146.08 21.96C146.464 22.56 146.944 23.052 147.52 23.436C148.12 23.796 148.768 23.976 149.464 23.976ZM165.644 8.172H169.136L168.416 11.556C169.352 10.428 170.432 9.528 171.656 8.856C172.904 8.184 174.2 7.848 175.544 7.848C176.912 7.848 178.088 8.208 179.072 8.928C180.056 9.624 180.812 10.56 181.34 11.736C181.868 12.912 182.132 14.22 182.132 15.66C182.132 17.172 181.856 18.636 181.304 20.052C180.752 21.444 179.996 22.692 179.036 23.796C178.1 24.9 177.008 25.776 175.76 26.424C174.536 27.048 173.24 27.36 171.872 27.36C170.456 27.36 169.28 27 168.344 26.28C167.408 25.56 166.748 24.624 166.364 23.472L163.988 34.668H160.028L165.644 8.172ZM171.296 23.976C172.208 23.976 173.06 23.76 173.852 23.328C174.668 22.872 175.376 22.284 175.976 21.564C176.6 20.82 177.092 19.992 177.452 19.08C177.812 18.144 177.992 17.208 177.992 16.272C177.992 15.336 177.812 14.496 177.452 13.752C177.116 12.984 176.624 12.372 175.976 11.916C175.352 11.46 174.608 11.232 173.744 11.232C173.264 11.232 172.748 11.328 172.196 11.52C171.668 11.712 171.14 11.976 170.612 12.312C170.084 12.648 169.604 13.044 169.172 13.5C168.764 13.956 168.44 14.436 168.2 14.94L167.12 19.872C167.288 20.64 167.552 21.336 167.912 21.96C168.296 22.56 168.776 23.052 169.352 23.436C169.952 23.796 170.6 23.976 171.296 23.976ZM191.724 27.36C190.14 27.36 188.784 27.012 187.656 26.316C186.528 25.62 185.664 24.672 185.064 23.472C184.488 22.272 184.2 20.916 184.2 19.404C184.2 17.844 184.488 16.38 185.064 15.012C185.64 13.62 186.456 12.384 187.512 11.304C188.568 10.224 189.792 9.384 191.184 8.784C192.6 8.16 194.136 7.848 195.792 7.848C197.088 7.848 198.216 8.052 199.176 8.46C200.16 8.844 200.916 9.42 201.444 10.188C201.996 10.932 202.272 11.88 202.272 13.032C202.272 14.952 201.396 16.416 199.644 17.424C197.916 18.432 195.276 18.936 191.724 18.936C191.052 18.936 190.296 18.924 189.456 18.9C188.616 18.852 187.668 18.78 186.612 18.684L187.152 16.128C188.112 16.176 188.964 16.224 189.708 16.272C190.452 16.32 191.148 16.344 191.796 16.344C193.5 16.344 194.844 16.212 195.828 15.948C196.812 15.684 197.52 15.312 197.952 14.832C198.384 14.328 198.6 13.764 198.6 13.14C198.6 12.588 198.468 12.144 198.204 11.808C197.94 11.472 197.568 11.22 197.088 11.052C196.608 10.86 196.032 10.764 195.36 10.764C194.304 10.764 193.332 11.004 192.444 11.484C191.556 11.94 190.788 12.588 190.14 13.428C189.516 14.244 189.024 15.168 188.664 16.2C188.328 17.232 188.16 18.324 188.16 19.476C188.16 20.388 188.304 21.228 188.592 21.996C188.904 22.74 189.372 23.34 189.996 23.796C190.644 24.228 191.448 24.444 192.408 24.444C193.44 24.444 194.436 24.192 195.396 23.688C196.356 23.16 197.112 22.452 197.664 21.564L200.796 22.536C200.196 23.472 199.416 24.312 198.456 25.056C197.496 25.776 196.428 26.34 195.252 26.748C194.1 27.156 192.924 27.36 191.724 27.36ZM207.274 27.288C206.194 27.288 205.354 27.024 204.754 26.496C204.154 25.968 203.854 25.212 203.854 24.228C203.854 24.036 203.866 23.832 203.89 23.616C203.914 23.4 203.95 23.196 203.998 23.004L208.714 0.719999H212.638L208.246 21.564C208.222 21.684 208.198 21.804 208.174 21.924C208.15 22.044 208.138 22.164 208.138 22.284C208.138 23.292 208.654 23.796 209.686 23.796C209.95 23.796 210.262 23.748 210.622 23.652C211.006 23.556 211.354 23.448 211.666 23.328L211.522 26.424C210.922 26.664 210.214 26.868 209.398 27.036C208.606 27.204 207.898 27.288 207.274 27.288Z" fill="#81A4CD"/>
</svg>
